<?xml version="1.0" standalone="no"?>
<!DOCTYPE svg PUBLIC "-//W3C//DTD SVG 20010904//EN"
 "http://www.w3.org/TR/2001/REC-SVG-20010904/DTD/svg10.dtd">
<svg version="1.0" xmlns="http://www.w3.org/2000/svg"
 width="241.000000pt" height="161.000000pt" viewBox="0 0 241.000000 161.000000"
 preserveAspectRatio="xMidYMid meet">

<g transform="translate(0.000000,161.000000) scale(0.100000,-0.100000)"
fill="#000000" stroke="none">
<path d="M1081 1461 c-18 -62 -6 -108 37 -151 20 -21 44 -39 52 -42 13 -4 13
-9 -3 -36 -14 -25 -16 -44 -11 -100 6 -68 6 -71 -21 -96 -57 -53 -126 -24
-230 95 -103 119 -158 146 -325 160 -158 12 -217 34 -324 117 -67 52 -62 29 7
-35 80 -74 162 -107 322 -129 60 -8 130 -24 154 -35 25 -11 83 -57 135 -108
120 -117 166 -140 238 -120 59 15 81 57 74 139 -7 82 8 110 59 110 58 0 86
-64 43 -94 -22 -15 -22 -16 -2 -16 11 0 25 -5 32 -12 19 -19 16 82 -4 110 -8
12 -34 32 -58 42 -93 44 -140 105 -155 199 l-8 46 -12 -44z"/>
<path d="M1204 1427 c4 -55 26 -84 96 -129 24 -15 50 -38 57 -51 12 -21 12
-21 13 -2 0 11 -16 42 -35 69 -19 27 -35 59 -36 70 -1 20 -2 18 -15 -23 -7
-22 -34 6 -61 64 l-24 50 5 -48z"/>
<path d="M2170 1404 c-30 -25 -73 -54 -95 -66 -41 -22 -186 -48 -266 -48 -101
0 -143 -23 -266 -142 -62 -60 -129 -116 -148 -124 -45 -18 -90 -18 -109 2 -9
8 -16 11 -16 5 0 -16 29 -40 57 -47 56 -15 138 29 246 132 101 97 134 112 280
129 154 18 207 35 273 89 41 33 115 117 102 116 -2 -1 -28 -21 -58 -46z"/>
<path d="M2216 1333 c-43 -82 -163 -158 -267 -170 -85 -9 -92 -18 -34 -44 56
-25 175 -31 210 -11 18 10 16 11 -15 10 -60 -3 -110 2 -110 10 0 5 17 14 38
20 76 23 154 96 187 175 18 43 12 49 -9 10z"/>
<path d="M205 1317 c26 -68 72 -115 146 -150 38 -17 69 -35 69 -39 0 -5 -33
-8 -72 -8 -78 -1 -77 -13 2 -24 56 -8 143 8 184 33 l30 20 -24 4 c-14 3 -54
10 -90 17 -104 19 -177 67 -243 160 -17 24 -17 24 -2 -13z"/>
<path d="M2135 1070 c-65 -30 -194 -43 -293 -30 -46 6 -86 9 -89 7 -8 -9 51
-69 87 -87 20 -10 61 -21 91 -25 l54 -5 -55 20 c-30 11 -61 27 -69 35 -14 13
-6 15 61 15 89 0 188 28 233 64 35 30 33 30 -20 6z"/>
<path d="M281 1057 c47 -33 140 -57 223 -57 37 0 66 -4 66 -10 0 -5 -1 -10 -2
-10 -2 0 -30 -12 -63 -26 l-60 -25 54 6 c60 7 93 21 140 61 48 40 42 57 -16
47 -114 -18 -242 -6 -360 33 -10 4 -2 -5 18 -19z"/>
<path d="M715 910 c-32 -12 -79 -20 -130 -20 -97 -2 -75 -18 25 -19 64 -1 139
23 154 48 4 6 6 11 4 10 -2 0 -25 -9 -53 -19z"/>
<path d="M1684 905 c33 -27 68 -35 140 -34 87 1 101 17 16 19 -45 0 -97 8
-130 20 l-55 18 29 -23z"/>
<path d="M875 863 c-16 -9 -61 -18 -100 -21 -73 -5 -67 -20 9 -21 40 -1 126
33 126 50 0 11 1 11 -35 -8z"/>
<path d="M1522 863 c30 -37 123 -54 173 -33 15 6 6 9 -32 9 -29 1 -76 10 -104
20 -42 16 -48 17 -37 4z"/>
<path d="M563 599 c15 -9 17 -27 17 -129 0 -85 -3 -120 -12 -123 -7 -3 5 -5
27 -5 22 0 34 2 28 5 -18 7 -18 123 0 123 18 0 29 -10 61 -55 36 -50 66 -74
89 -75 15 0 12 5 -12 25 -16 14 -40 42 -52 61 l-21 35 26 28 c42 44 29 89 -32
112 -35 13 -39 4 -5 -13 20 -10 29 -22 31 -44 4 -41 -20 -64 -64 -64 l-34 0 0
51 c0 37 5 55 16 64 14 10 9 12 -32 13 -36 0 -44 -2 -31 -9z"/>
<path d="M1209 596 c8 -10 11 -53 9 -135 l-3 -121 25 0 c18 0 21 3 12 9 -10 6
-13 28 -12 72 1 35 2 92 1 127 -1 56 -3 62 -22 62 -17 0 -19 -3 -10 -14z"/>
<path d="M908 498 c14 -18 13 -120 -2 -137 -8 -11 -8 -13 1 -8 6 4 14 3 18 -3
3 -5 14 -10 23 -9 11 0 12 3 5 6 -9 3 -13 27 -13 72 0 63 -10 91 -33 91 -5 0
-5 -6 1 -12z"/>
<path d="M1028 496 c-10 -7 -18 -24 -18 -37 1 -27 26 -66 37 -56 4 4 1 13 -5
19 -18 18 -15 66 6 77 9 6 13 10 7 10 -5 0 -18 -6 -27 -13z"/>
<path d="M1094 494 c19 -18 21 -55 4 -72 -7 -7 -8 -12 -2 -12 18 0 34 24 34
52 0 15 6 28 13 29 13 1 -30 16 -51 18 -10 1 -9 -3 2 -15z"/>
<path d="M1275 500 c-3 -5 0 -7 8 -4 31 11 49 -25 45 -93 -3 -60 -2 -63 20
-63 15 0 21 4 16 12 -4 7 -9 38 -10 71 -2 32 -8 65 -15 73 -13 16 -55 19 -64
4z"/>
<path d="M1487 500 c19 -8 22 -16 22 -72 -1 -36 -6 -66 -12 -71 -8 -6 -6 -7 6
-3 9 3 17 1 17 -4 0 -6 10 -10 23 -10 18 0 19 2 7 10 -10 6 -17 32 -20 82 -5
73 -5 73 -35 75 -27 2 -28 2 -8 -7z"/>
<path d="M1639 425 c20 -47 39 -85 42 -85 3 0 13 19 22 43 16 40 16 41 -1 19
l-17 -22 -25 57 c-14 32 -24 61 -22 65 1 5 -6 8 -17 8 -17 0 -15 -8 18 -85z"/>
<path d="M1736 495 c4 -8 7 -15 9 -15 2 0 5 7 9 15 3 9 0 15 -9 15 -9 0 -12
-6 -9 -15z"/>
<path d="M1884 494 c18 -18 21 -50 6 -59 -8 -5 -7 -11 1 -21 6 -7 9 -25 5 -38
-4 -17 -1 -26 10 -30 27 -10 39 -7 26 6 -7 7 -12 39 -12 73 0 60 -11 85 -38
85 -10 0 -10 -3 2 -16z"/>
<path d="M842 488 c-14 -14 -16 -28 -3 -28 5 0 11 9 14 20 6 23 5 24 -11 8z"/>
<path d="M1430 481 c-7 -15 -7 -21 0 -21 12 0 25 28 17 36 -3 3 -10 -4 -17
-15z"/>
<path d="M1815 480 c-10 -11 -13 -20 -7 -20 6 0 16 9 22 20 6 11 9 20 7 20 -2
0 -12 -9 -22 -20z"/>
<path d="M843 403 c-7 -2 -13 -18 -13 -34 0 -26 3 -29 33 -28 31 0 31 1 9 12
-17 8 -22 17 -19 34 2 13 4 23 3 22 0 0 -7 -3 -13 -6z"/>
<path d="M1430 395 c-20 -24 -8 -50 25 -53 28 -3 29 -2 11 11 -13 9 -17 21
-13 36 6 24 -5 28 -23 6z"/>
<path d="M1814 396 c-26 -20 -8 -50 32 -53 28 -3 28 -2 5 7 -18 8 -22 16 -19
35 6 29 7 29 -18 11z"/>
<path d="M1010 366 c0 -23 23 -35 75 -38 43 -3 50 -6 55 -28 l6 -25 8 23 c11
33 -7 48 -67 55 -28 4 -53 11 -55 17 -5 15 -22 12 -22 -4z"/>
<path d="M1005 297 c-10 -23 10 -44 50 -52 l30 -6 -32 15 c-19 9 -33 23 -35
38 -4 21 -5 21 -13 5z"/>
</g>
</svg>
